<svg width="192" height="192" viewBox="0 0 192 192" fill="none" xmlns="http://www.w3.org/2000/svg">
<rect width="192" height="192" rx="40" fill="url(#gradient0_linear_1_1)"/>
<path d="M96 48C78.3 48 64 62.3 64 80V72C48 57.6 48 37.6 48 24C48 10.7 58.7 0 72 0H120C133.3 0 144 10.7 144 24C144 37.6 144 57.6 128 72V80C128 62.3 113.7 48 96 48Z" fill="white"/>
<path d="M96 144C109.3 144 120 133.3 120 120V80C120 66.7 109.3 56 96 56C82.7 56 72 66.7 72 80V120C72 133.3 82.7 144 96 144Z" fill="white"/>
<defs>
<linearGradient id="gradient0_linear_1_1" x1="0" y1="0" x2="192" y2="192" gradientUnits="userSpaceOnUse">
<stop stop-color="#0ea5e9"/>
<stop offset="1" stop-color="#3b82f6"/>
</linearGradient>
</defs>
</svg>